<svg width="24" height="25" viewBox="0 0 24 25" fill="none" xmlns="http://www.w3.org/2000/svg">
<path d="M12 14.0338C12.4142 14.0338 12.75 13.698 12.75 13.2838C12.75 12.8696 12.4142 12.5338 12 12.5338C11.5858 12.5338 11.25 12.8696 11.25 13.2838C11.25 13.698 11.5858 14.0338 12 14.0338Z" fill="#112211"/>
<path d="M13.125 4.35413V3.90881C13.125 3.61044 13.0065 3.3243 12.7955 3.11332C12.5845 2.90234 12.2984 2.78381 12 2.78381C11.7016 2.78381 11.4155 2.90234 11.2045 3.11332C10.9935 3.3243 10.875 3.61044 10.875 3.90881V4.35413C9.45433 4.53247 8.09716 5.04895 6.91735 5.86022L6.42188 5.36194C6.21053 5.15059 5.92389 5.03186 5.625 5.03186C5.32612 5.03186 5.03947 5.15059 4.82813 5.36194C4.61678 5.57328 4.49805 5.85993 4.49805 6.15881C4.49805 6.4577 4.61678 6.74434 4.82813 6.95569L5.23125 7.35881C3.79135 8.99653 2.99805 11.1031 3 13.2838C3 18.2465 7.03735 22.2838 12 22.2838C16.9627 22.2838 21 18.2465 21 13.2838C21 8.70225 17.5584 4.90913 13.125 4.35413ZM12 15.5338C11.4694 15.5337 10.9558 15.346 10.5502 15.0039C10.1445 14.6618 9.87279 14.1873 9.78305 13.6643C9.69331 13.1413 9.79131 12.6034 10.0597 12.1457C10.3282 11.6879 10.7498 11.3398 11.25 11.1627V7.65881C11.25 7.4599 11.329 7.26914 11.4697 7.12848C11.6103 6.98783 11.8011 6.90881 12 6.90881C12.1989 6.90881 12.3897 6.98783 12.5303 7.12848C12.671 7.26914 12.75 7.4599 12.75 7.65881V11.1627C13.2503 11.3398 13.6718 11.6879 13.9403 12.1457C14.2087 12.6034 14.3067 13.1413 14.217 13.6643C14.1272 14.1873 13.8555 14.6618 13.4498 15.0039C13.0442 15.346 12.5307 15.5337 12 15.5338Z" fill="#112211"/>
</svg>
