<svg width="20" height="20" viewBox="0 0 20 20" fill="none" xmlns="http://www.w3.org/2000/svg">
<path d="M13.1869 13.915L13.2028 13.9239L13.2154 13.9107C13.4459 13.6697 13.7229 13.4778 14.0296 13.3468C14.3363 13.2158 14.6664 13.1483 15 13.1485C15.5172 13.1484 16.0215 13.3103 16.442 13.6115C16.8626 13.9126 17.1783 14.3378 17.3448 14.8275C17.5114 15.3172 17.5204 15.8468 17.3707 16.3419C17.221 16.837 16.92 17.2728 16.51 17.5881C16.1 17.9034 15.6016 18.0825 15.0846 18.1001C14.5677 18.1178 14.0582 17.9731 13.6277 17.6865C13.1971 17.3998 12.8671 16.9856 12.684 16.5018C12.5009 16.0181 12.4738 15.4891 12.6066 14.9892L12.6113 14.9717L12.5955 14.9628L6.8142 11.7101L6.79837 11.7011L6.78579 11.7143C6.4437 12.071 6.00271 12.3171 5.51955 12.4211C5.03639 12.5251 4.53317 12.4822 4.07461 12.2978C3.61606 12.1135 3.22316 11.7961 2.94644 11.3867C2.66972 10.9772 2.52185 10.4942 2.52185 10C2.52185 9.50579 2.66972 9.02287 2.94644 8.61338C3.22316 8.20389 3.61606 7.88655 4.07461 7.7022C4.53317 7.51785 5.03639 7.47491 5.51955 7.5789C6.00271 7.6829 6.4437 7.92908 6.78579 8.28577L6.79837 8.29888L6.8142 8.28997L12.5955 5.03724L12.6113 5.02833L12.6066 5.01078C12.452 4.43032 12.5143 3.8134 12.7819 3.27559C13.0495 2.73778 13.504 2.31599 14.0603 2.08924C14.6165 1.86248 15.2364 1.84632 15.8037 2.04377C16.371 2.24123 16.8469 2.63876 17.1421 3.16189C17.4374 3.68502 17.5318 4.29786 17.4076 4.88559C17.2835 5.47332 16.9493 5.99562 16.4677 6.35464C15.9861 6.71366 15.3901 6.88477 14.7914 6.83591C14.1927 6.78705 13.6323 6.52157 13.2153 6.08921L13.2027 6.07618L13.1869 6.08506L7.40567 9.33779L7.38984 9.3467L7.39451 9.36425C7.50545 9.78084 7.50545 10.2192 7.39451 10.6358L7.38984 10.6533L7.40567 10.6622L13.1869 13.915Z" fill="black" stroke="#112211" stroke-width="0.046875"/>
</svg>
